<svg width="19" height="19" viewBox="0 0 19 19" fill="none" xmlns="http://www.w3.org/2000/svg">
<path d="M13.9055 18.994C7.55389 18.8809 0.710899 11.2593 0.112249 6.05194C-0.378543 4.11587 0.798973 1.25811 2.49728 0.330658C3.66458 -0.315551 4.9857 -0.000436146 6.00557 1.152L7.68345 3.39232C8.04185 3.86867 8.22862 4.45253 8.21332 5.04877C8.19802 5.64501 7.98156 6.2185 7.59921 6.67578L6.86334 7.56104C6.81698 7.61741 6.7886 7.68642 6.78189 7.75914C6.77517 7.83185 6.79043 7.90491 6.82568 7.96884C7.82233 9.73694 9.28326 11.1981 11.0501 12.1938C11.232 12.3025 11.4177 12.2066 11.9557 11.7272C12.405 11.2169 13.0284 10.8931 13.7037 10.8192C14.379 10.7453 15.0576 10.9266 15.6063 11.3277L17.8439 13.0088C21.0229 15.8819 16.9593 19.1589 13.9055 18.994ZM3.75138 1.276C2.03584 1.44794 1.01405 4.20024 1.35997 5.78668C1.6861 7.67481 2.67725 10.4827 5.60222 13.4121C8.99116 16.7115 14.0791 19.4645 17.2465 16.3478C17.3998 16.1908 17.5181 16.0029 17.5934 15.7966C17.6687 15.5903 17.6995 15.3704 17.6835 15.1513C17.6676 14.9322 17.6054 14.7191 17.501 14.5259C17.3966 14.3327 17.2525 14.164 17.0781 14.0308L14.8411 12.3498C13.0662 11.1046 12.3725 14.3958 10.4042 13.2964C8.44243 12.1872 6.8206 10.5623 5.71391 8.59715C5.55207 8.30698 5.48157 7.9746 5.51164 7.6436C5.5417 7.3126 5.67094 6.99842 5.8824 6.74225L6.6189 5.85763C6.81687 5.6212 6.92895 5.32453 6.93683 5.01608C6.94471 4.70762 6.84794 4.4056 6.6623 4.15934L5.00484 1.94778C4.85305 1.75563 4.66336 1.59687 4.44759 1.4814C4.23181 1.36593 3.9946 1.29623 3.75074 1.27664L3.75138 1.276Z" fill="white"/>
</svg>
