<svg width="68" height="82" viewBox="0 0 68 82" fill="none" xmlns="http://www.w3.org/2000/svg">
<path fill-rule="evenodd" clip-rule="evenodd" d="M66.9502 6.94342C64.8372 1.56643 60.4116 -0.869299 54.7524 0.278373C52.2708 0.782345 50.043 1.89017 47.9124 3.22119C44.4641 5.37615 41.6154 8.18777 39.0948 11.3515C36.3807 14.7554 34.036 18.4078 31.9202 22.2129C31.0901 23.7065 30.2454 25.191 29.4076 26.68C29.2015 26.6332 28.9946 26.5857 28.7886 26.5404C28.8654 25.2607 28.9408 23.9811 29.021 22.7023C29.2348 19.2754 28.6138 15.9951 27.3558 12.8128C25.6271 8.44238 20.2374 4.54984 13.8912 7.28093C12.7081 7.78957 11.5789 8.48379 10.5309 9.24024C5.91744 12.5773 3.36247 17.323 1.78817 22.6378C-0.0613501 28.8733 -0.470884 35.2338 0.535131 41.6808C1.24295 46.2166 2.44057 50.6102 4.02892 54.9062C7.3235 63.8159 11.7376 72.1733 16.5013 80.3589C16.665 80.6396 16.8283 80.9258 17.0198 81.1866C17.6794 82.088 18.3944 82.2682 19.2158 81.5863C20.2122 80.7601 21.172 79.8717 22.0465 78.9159C26.5914 73.9516 31.131 68.9813 35.6227 63.9671C41.418 57.4991 47.2057 51.0244 52.923 44.4868C57.5237 39.229 61.1938 33.3289 64.3499 27.1065C66.5432 22.782 67.7821 18.1906 67.9848 13.3353C68.0759 11.1359 67.7608 9.00473 66.9502 6.94342ZM61.8065 26.6332C58.6717 32.7421 54.965 38.4964 50.3963 43.6406C43.9097 50.9477 37.3672 58.2066 30.8389 65.4777C27.5023 69.1953 24.1496 72.8976 20.7946 76.5969C20.1561 77.3003 19.4739 77.9631 18.7191 78.7395C18.3325 78.28 18.0033 77.9908 17.7976 77.6317C12.99 69.2167 8.50813 60.6446 5.44872 51.4042C3.45345 45.3759 2.19893 39.2184 2.57021 32.8165C2.89449 27.2094 4.05843 21.8377 6.92394 16.9241C8.43243 14.335 10.4376 12.2406 12.912 10.592C13.5449 10.1721 14.2202 9.82034 14.9267 9.54257C19.1122 7.89552 23.09 9.48501 24.9415 13.5824C26.1227 16.1961 26.7693 18.9724 26.5325 21.8354C26.2652 25.0782 25.7704 28.3064 25.3349 31.5354C25.1457 32.9355 24.8538 34.3225 24.6188 35.7148C24.548 36.1421 24.3836 36.614 24.4971 36.9968C24.6363 37.4655 24.9326 37.9986 25.3242 38.2495C25.8147 38.5655 26.4067 38.304 26.7103 37.7954C27.3209 36.7727 27.9251 35.7394 28.4295 34.6615C30.8285 29.5392 33.3021 24.4607 36.3034 19.6598C38.4966 16.1539 40.8758 12.7853 43.7628 9.80727C46.2833 7.20738 49.1451 5.0862 52.4702 3.6225C54.0785 2.9159 55.7495 2.4526 57.5145 2.51779C60.4589 2.62448 62.7026 3.90868 64.0615 6.59902C65.0611 8.57678 65.5368 10.6565 65.4985 12.8889C65.413 17.7872 64.0105 22.3425 61.8065 26.6332Z" fill="#DE9DE5"/>
</svg>
