<svg width="21" height="21" viewBox="0 0 21 21" fill="none" xmlns="http://www.w3.org/2000/svg">
<g clip-path="url(#clip0_687_948)">
<path d="M20.9467 6.17408C20.8974 5.05823 20.717 4.29117 20.4584 3.62642C20.1917 2.92085 19.7814 2.28917 19.2438 1.76402C18.7186 1.23071 18.0826 0.816292 17.385 0.553821C16.7164 0.295371 15.9531 0.114867 14.8371 0.0657201C13.7127 0.0123071 13.3558 0 10.5041 0C7.65239 0 7.29545 0.0123071 6.17525 0.0615357C5.05923 0.110764 4.29198 0.291351 3.62731 0.549637C2.92141 0.816292 2.2896 1.22653 1.76436 1.76402C1.23095 2.28913 0.816651 2.925 0.553926 3.6224C0.295427 4.29117 0.114929 5.05413 0.0657326 6.1699C0.0123505 7.29407 0 7.65094 0 10.5021C0 13.3532 0.0123505 13.7102 0.0615474 14.8301C0.110785 15.946 0.291406 16.713 0.549946 17.3778C0.816651 18.0833 1.23095 18.715 1.76436 19.2402C2.2896 19.7735 2.92559 20.1879 3.62313 20.4504C4.29194 20.7088 5.05505 20.8893 6.17127 20.9385C7.29127 20.9879 7.64841 21 10.5001 21C13.3518 21 13.7087 20.9879 14.8289 20.9385C15.945 20.8893 16.7122 20.7089 17.3769 20.4504C18.075 20.1805 18.709 19.7678 19.2382 19.2387C19.7675 18.7096 20.1803 18.0757 20.4503 17.3778C20.7086 16.709 20.8893 15.9459 20.9385 14.8301C20.9877 13.7102 21 13.3532 21 10.5021C21 7.65094 20.9958 7.29403 20.9467 6.17408ZM19.0552 14.7481C19.01 15.7737 18.8377 16.3275 18.6941 16.6967C18.3411 17.6115 17.6149 18.3376 16.6999 18.6905C16.3306 18.8341 15.7727 19.0064 14.7509 19.0514C13.643 19.1008 13.3108 19.1129 10.5083 19.1129C7.70577 19.1129 7.36935 19.1008 6.26548 19.0514C5.23969 19.0064 4.68576 18.8341 4.31648 18.6905C3.86115 18.5222 3.44669 18.2556 3.11023 17.9069C2.76147 17.5664 2.49476 17.1562 2.32645 16.7009C2.18284 16.3317 2.01055 15.7737 1.96554 14.7522C1.91613 13.6446 1.90399 13.3122 1.90399 10.5103C1.90399 7.70829 1.91613 7.37194 1.96554 6.26848C2.01055 5.24288 2.18284 4.68906 2.32645 4.31985C2.49476 3.8644 2.76147 3.4501 3.11442 3.11362C3.45482 2.76492 3.86513 2.49827 4.32067 2.33019C4.68995 2.18661 5.24806 2.01431 6.26967 1.96914C7.37752 1.91991 7.70996 1.90761 10.5122 1.90761C13.3189 1.90761 13.6512 1.91991 14.755 1.96914C15.7808 2.01435 16.3348 2.18657 16.704 2.33015C17.1594 2.49827 17.5739 2.76492 17.9103 3.11362C18.259 3.45416 18.5258 3.8644 18.6941 4.31985C18.8377 4.68906 19.01 5.24686 19.0551 6.26848C19.1044 7.37612 19.1167 7.70829 19.1167 10.5103C19.1167 13.3122 19.1044 13.6404 19.0552 14.7481Z" fill="white"/>
<path d="M10.5041 5.10744C7.52524 5.10744 5.1084 7.52366 5.1084 10.5021C5.1084 13.4805 7.52524 15.8967 10.5041 15.8967C13.4829 15.8967 15.8997 13.4805 15.8997 10.5021C15.8997 7.52366 13.4829 5.10744 10.5041 5.10744ZM10.5041 14.0014C8.57155 14.0014 7.00397 12.4344 7.00397 10.5021C7.00397 8.56976 8.57155 7.00274 10.504 7.00274C12.4367 7.00274 14.004 8.56976 14.004 10.5021C14.004 12.4344 12.4366 14.0014 10.5041 14.0014ZM17.3728 4.89411C17.3728 5.58963 16.8088 6.15354 16.113 6.15354C15.4174 6.15354 14.8534 5.58963 14.8534 4.89411C14.8534 4.19851 15.4174 3.63477 16.113 3.63477C16.8088 3.63477 17.3728 4.19847 17.3728 4.89411Z" fill="white"/>
</g>
<defs>
<clipPath id="clip0_687_948">
<rect width="21" height="21" fill="white"/>
</clipPath>
</defs>
</svg>
